<?xml version="1.0" encoding="utf-8"?>
<!-- Generator: Adobe Illustrator 21.0.0, SVG Export Plug-In . SVG Version: 6.00 Build 0)  -->
<svg version="1.1" id="Layer_1" xmlns="http://www.w3.org/2000/svg" xmlns:xlink="http://www.w3.org/1999/xlink" x="0px" y="0px"
	 viewBox="0 0 694 1001" style="enable-background:new 0 0 694 1001;" xml:space="preserve">
<style type="text/css">
	.st0{fill:#ED1C24;}
	.st1{fill:#FFFFFF;}
</style>
<path class="st0" d="M619,315.5C619,171.3,502.2,54.3,358.1,54C213,53.7,96.1,170.2,96,315.2c-0.1,125.9,88.7,231.1,207.2,256.1
	c6.3,1.3,11.1,6.5,11.8,13L357.5,955L400,584.3c0.7-6.4,5.5-11.6,11.9-13C530.2,546.3,619,441.3,619,315.5z"/>
<circle class="st1" cx="357.5" cy="315.5" r="226.5"/>
<path class="st0" d="M188.4,356.8c0-20.5,0-40.5,0-61c22.3,0,44.1,0,66.4,0c0,20.5,0,40.5,0,61C232.5,356.8,210.7,356.8,188.4,356.8
	z"/>
<path class="st0" d="M254.8,297c0-20.5,0-40.5,0-61c22.3,0,44.1,0,66.4,0c0,20.5,0,40.5,0,61C298.9,297,277.1,297,254.8,297z"/>
<path class="st0" d="M387.1,297c0-20.5,0-40.5,0-61c22.3,0,44.1,0,66.4,0c0,20.5,0,40.5,0,61C431.8,297,409.4,297,387.1,297z"/>
<path class="st0" d="M320.6,358c0-20.5,0-40.5,0-61c22.3,0,44.1,0,66.4,0c0,20.5,0,40.5,0,61C365.3,358,343,358,320.6,358z"/>
<path class="st0" d="M453.5,358c0-20.5,0-40.5,0-61c22.3,0,44.1,0,66.4,0c0,20.5,0,40.5,0,61C497.6,358,475.9,358,453.5,358z"/>
</svg>
