<?xml version="1.0" encoding="utf-8"?>
<!-- Generator: Adobe Illustrator 21.0.0, SVG Export Plug-In . SVG Version: 6.00 Build 0)  -->
<svg version="1.1" id="Layer_1" xmlns="http://www.w3.org/2000/svg" xmlns:xlink="http://www.w3.org/1999/xlink" x="0px" y="0px"
	 viewBox="0 0 210 211.5" style="enable-background:new 0 0 210 211.5;" xml:space="preserve">
<style type="text/css">
	.st0{fill:#ED1C24;}
</style>
<g>
	<path d="M42.1,193.3l9.5-23.7h7.3v34.5h-8v-14.9l-6.2,14.9h-5.1l-6.3-15.3v15.3h-8V179c0-1.7-1.4-3-3-3l0,0v-6.2h10.5L42.1,193.3z"
		/>
	<path d="M65.6,169.7h8v27.9h12.9v6.6H65.6V169.7z"/>
	<path d="M102.3,179.7h3v-7.3h7.7v7.3h6.1v5.2H113v11.6c0,0.7,0,1.1,0.1,1.4c0.1,0.3,0.4,0.4,0.8,0.4h5v5.9h-6.9
		c-2.2,0-3.9-0.6-5.1-1.7c-1.2-1.1-1.8-2.8-1.8-5.1V188c0-1.7-1.4-3-3-3l0,0v-5.2H102.3z"/>
	<path d="M121.6,192.4c0-1.8,0.3-3.6,1-5.1c0.7-1.7,1.5-3,2.5-4.3c1.1-1.2,2.2-2.2,3.6-2.9c1.4-0.7,2.8-1.1,4.3-1.1
		c1.1,0,2.2,0.3,3.3,0.7c1.1,0.4,2.1,1.1,3.2,2.1v-1.9h7.7v15.5c0,1.7,1.4,2.9,2.9,2.9l0,0v5.9h-9.2v-2.9c-0.7,1-2.5,2.2-3.7,2.8
		c-1.1,0.6-2.5,0.8-4.1,0.8s-3.2-0.3-4.5-1c-1.4-0.7-2.6-1.7-3.6-2.8s-1.8-2.5-2.3-4C121.8,195.7,121.6,194,121.6,192.4z
		 M129.1,192.1c0,1,0.1,1.9,0.4,2.8s0.7,1.7,1.1,2.2c0.4,0.7,1,1.1,1.7,1.5c0.7,0.4,1.4,0.6,2.1,0.6c1.4,0,2.5-0.7,3.4-1.9
		c1-1.2,1.4-3,1.4-5.1c0-1.1-0.1-2.1-0.4-3c-0.3-0.8-0.6-1.7-1.1-2.3c-0.4-0.7-1-1.1-1.5-1.5c-0.6-0.4-1.2-0.6-1.9-0.6
		c-0.7,0-1.4,0.1-2.1,0.6c-0.6,0.4-1.1,1-1.7,1.7c-0.4,0.7-0.8,1.5-1.1,2.3C129.1,190,129.1,191.1,129.1,192.1z"/>
	<path d="M152.4,179.9h7.6l3.6,5.6l3.6-5.6h7.6l-7.3,11.7l2.8,4.4c1,1.5,2.6,2.3,4.3,2.3h0.8v5.9h-7.7l-4.1-6.5l-4.1,6.5h-7.6
		l7.8-12.7l-2.3-3.7c-0.8-1.4-2.3-2.2-4-2.2h-1v-5.8H152.4z"/>
	<path d="M177.1,179.9h10.6v24.3H180v-15.5c0-1.7-1.4-2.9-2.9-2.9l0,0L177.1,179.9L177.1,179.9z"/>
</g>
<path class="st0" d="M153.5,123.6c-0.3-2.2-0.6-4.1-0.7-6.1c-0.4-3.6-0.8-7.2-1.2-10.6c-0.1-0.6,0-1.1,0.4-1.5
	c4.1-5.9,6.9-12.4,8.4-19.4c1.4-6.1,1.7-12.1,0.8-18.3c-1.5-12.7-6.7-23.5-15.8-32.5c-8.1-8.1-17.9-13.1-29.3-14.9
	C89.7,16.2,64.4,32,56.2,57.7C54.3,64,53.5,70.4,53.8,77c1.2,24.3,17.9,43.7,39.5,49.8c6.3,1.8,12.8,2.3,19.4,1.8
	c4.5-0.4,9.1-1.4,13.3-3c0.7-0.3,1.2-0.3,1.9,0c4.5,2.1,9.1,4,13.6,5.9c0.3,0.1,0.6,0.3,1,0.4c-22,14.4-60.4,15.3-85.4-13.1
	c-25.6-29-21.7-73.2,8.5-97.4C95.3-2.4,139.2,3,162.1,34.2C184,64.3,176.6,103.2,153.5,123.6z"/>
<path class="st0" d="M69.6,86.7c0-4.7,0-9.2,0-13.9c5.1,0,10,0,15.1,0c0,4.7,0,9.2,0,13.9C79.6,86.7,74.7,86.7,69.6,86.7z"/>
<path class="st0" d="M84.7,73.1c0-4.7,0-9.2,0-13.9c5.1,0,10,0,15.1,0c0,4.7,0,9.2,0,13.9C94.8,73.1,89.8,73.1,84.7,73.1z"/>
<path class="st0" d="M114.8,73.1c0-4.7,0-9.2,0-13.9c5.1,0,10,0,15.1,0c0,4.7,0,9.2,0,13.9C125,73.1,119.9,73.1,114.8,73.1z"/>
<path class="st0" d="M99.8,87c0-4.7,0-9.2,0-13.9c5.1,0,10,0,15.1,0c0,4.7,0,9.2,0,13.9C109.9,87,104.8,87,99.8,87z"/>
<path class="st0" d="M130,87c0-4.7,0-9.2,0-13.9c5.1,0,10,0,15.1,0c0,4.7,0,9.2,0,13.9C140,87,135.1,87,130,87z"/>
<path d="M146.6,110c0.8,5.8,1.7,11.4,2.3,17.2c-5.6-1.8-11.1-3.6-16.8-5.5C137,117.7,141.7,113.8,146.6,110z"/>
</svg>
