<?xml version="1.0" encoding="utf-8"?>
<!-- Generator: Adobe Illustrator 21.0.0, SVG Export Plug-In . SVG Version: 6.00 Build 0)  -->
<svg version="1.1" id="Layer_1" xmlns="http://www.w3.org/2000/svg" xmlns:xlink="http://www.w3.org/1999/xlink" x="0px" y="0px"
	 viewBox="0 0 128.7 128" style="enable-background:new 0 0 128.7 128;" xml:space="preserve">
<style type="text/css">
	.st0{fill:#FFFFFF;}
	.st1{fill:#ED1C24;}
</style>
<circle class="st0" cx="65.8" cy="64.6" r="49.1"/>
<path class="st1" d="M99.1,100.6c-0.2-1.6-0.4-3-0.5-4.4c-0.3-2.6-0.6-5.2-0.9-7.7c-0.1-0.4,0-0.8,0.3-1.1c3-4.3,5-9,6.1-14.1
	c1-4.4,1.2-8.8,0.6-13.3c-1.1-9.2-4.9-17.1-11.5-23.6c-5.9-5.9-13-9.5-21.3-10.8c-19.2-3.2-37.6,8.4-43.5,27c-1.4,4.6-2,9.2-1.8,14
	c0.9,17.7,13,31.8,28.7,36.2c4.6,1.3,9.3,1.7,14.1,1.3c3.3-0.3,6.6-1,9.7-2.2c0.5-0.2,0.9-0.2,1.4,0c3.3,1.5,6.6,2.9,9.9,4.3
	c0.2,0.1,0.4,0.2,0.7,0.3C75.1,117,47.2,117.6,29,97c-18.7-21-15.8-53.1,6.1-70.7C56.8,9,88.7,12.8,105.4,35.6
	C121.3,57.4,115.9,85.7,99.1,100.6z"/>
<path class="st1" d="M38.1,73.7c0-3.4,0-6.7,0-10.1c3.7,0,7.3,0,11,0c0,3.4,0,6.7,0,10.1C45.4,73.7,41.8,73.7,38.1,73.7z"/>
<path class="st1" d="M49.1,63.8c0-3.4,0-6.7,0-10.1c3.7,0,7.3,0,11,0c0,3.4,0,6.7,0,10.1C56.4,63.8,52.8,63.8,49.1,63.8z"/>
<path class="st1" d="M71,63.8c0-3.4,0-6.7,0-10.1c3.7,0,7.3,0,11,0c0,3.4,0,6.7,0,10.1C78.4,63.8,74.7,63.8,71,63.8z"/>
<path class="st1" d="M60,73.9c0-3.4,0-6.7,0-10.1c3.7,0,7.3,0,11,0c0,3.4,0,6.7,0,10.1C67.4,73.9,63.7,73.9,60,73.9z"/>
<path class="st1" d="M82,73.9c0-3.4,0-6.7,0-10.1c3.7,0,7.3,0,11,0c0,3.4,0,6.7,0,10.1C89.3,73.9,85.7,73.9,82,73.9z"/>
<path d="M94.1,90.6c0.6,4.2,1.2,8.3,1.7,12.5c-4.1-1.3-8.1-2.6-12.2-4C87.1,96.2,90.5,93.5,94.1,90.6z"/>
</svg>
