<svg id="Layer_1" data-name="Layer 1" xmlns="http://www.w3.org/2000/svg" viewBox="0 0 256 256"><title>pinpoint_orange</title><ellipse cx="129.88" cy="235.11" rx="64.04" ry="16.85" style="fill:#e4e3e5"/><path d="M128,3a98.75,98.75,0,0,0-98.75,98.75q0,.13,0,.25c0,76.81,98.75,135.4,98.75,135.4s98.75-58.59,98.75-135.4a98.75,98.75,0,0,0-98.5-99Z" style="fill:#e8b321"/><circle cx="128.27" cy="102.07" r="79.54" style="fill:#fff"/><path d="M169.83,146.33c-.27-2-.54-3.7-.63-5.51-.36-3.25-.72-6.5-1.08-9.57a1.45,1.45,0,0,1,.36-1.35,48.12,48.12,0,0,0,7.58-17.51,44.25,44.25,0,0,0,.72-16.52,47.92,47.92,0,0,0-14.26-29.34,46.92,46.92,0,0,0-26.45-13.45A48.89,48.89,0,0,0,82,86.84a51.64,51.64,0,0,0-2.17,17.42,49.15,49.15,0,0,0,35.66,45A49.67,49.67,0,0,0,133,150.85a45.44,45.44,0,0,0,12-2.71,1.91,1.91,0,0,1,1.72,0c4.06,1.9,8.21,3.61,12.28,5.33a9.36,9.36,0,0,0,.9.36c-19.86,13-54.52,13.81-77.09-11.83a60.92,60.92,0,1,1,94.79-76.37C197.36,92.8,190.68,127.92,169.83,146.33Z" style="fill:#ed1c24"/><path d="M104.47,109.61v-8.76H114v8.76Z" style="fill:#ed1c24"/><path d="M114,101V92.28h9.52V101Z" style="fill:#ed1c24"/><path d="M133,101V92.28h9.52V101Z" style="fill:#ed1c24"/><path d="M123.5,109.8V101H133v8.76Z" style="fill:#ed1c24"/><path d="M142.54,109.8V101h9.52v8.76Z" style="fill:#ed1c24"/><path d="M161.4,132c.68,4.91,1.44,9.65,1.95,14.56-4.74-1.52-9.39-3-14.22-4.65C153.28,138.55,157.26,135.25,161.4,132Z"/></svg>